<svg width="60" height="60" viewBox="8 7 65 65" fill="none" xmlns="http://www.w3.org/2000/svg">
<g filter="url(#filter0_d_1_705)">
<path fill-rule="evenodd" clip-rule="evenodd" d="M41 70C57.5685 70 71 56.5685 71 40C71 23.4315 57.5685 10 41 10C24.4315 10 11 23.4315 11 40C11 56.5685 24.4315 70 41 70Z" fill="#2196F3"/>
<path d="M69 40C69 55.464 56.464 68 41 68C25.536 68 13 55.464 13 40C13 24.536 25.536 12 41 12C56.464 12 69 24.536 69 40Z" stroke="#42A5F5" stroke-width="4"/>
</g>
<mask id="mask0_1_705" style="mask-type:alpha" maskUnits="userSpaceOnUse" x="11" y="10" width="60" height="60">
<path fill-rule="evenodd" clip-rule="evenodd" d="M41 70C57.5685 70 71 56.5685 71 40C71 23.4315 57.5685 10 41 10C24.4315 10 11 23.4315 11 40C11 56.5685 24.4315 70 41 70Z" fill="white"/>
</mask>
<g mask="url(#mask0_1_705)">
<path d="M13.714 32.875H67.536" stroke="#42A5F5" stroke-width="4" stroke-linecap="square"/>
<path d="M13.714 48.625H67.536" stroke="#42A5F5" stroke-width="4" stroke-linecap="square"/>
<path d="M40.25 14.5C40.25 14.5 30.2878 26.0775 30.5035 40.75C30.7191 55.4225 40.25 65.5 40.25 65.5" stroke="#42A5F5" stroke-width="4" stroke-linecap="round" stroke-linejoin="round"/>
<path d="M41 14.5C41 14.5 50.9622 26.0775 50.7465 40.75C50.5309 55.4225 41 65.5 41 65.5" stroke="#42A5F5" stroke-width="4" stroke-linecap="round" stroke-linejoin="round"/>
</g>
<path fill-rule="evenodd" clip-rule="evenodd" d="M51.1946 29.0279C51.3946 28.9124 51.6151 28.8407 51.8456 28.8261C52.8621 28.7621 55.798 28.6781 56.4347 29.7809C57.0715 30.8839 55.5298 33.3837 54.966 34.2314C54.8383 34.4236 54.666 34.5785 54.4662 34.6938L48.3904 38.2017L49.2343 55.3021C49.2461 55.5415 49.125 55.768 48.9193 55.8912L47.67 56.6394C47.5055 56.7379 47.3057 56.7587 47.1244 56.6961L46.1776 56.3691C46.019 56.3143 45.8877 56.2003 45.8114 56.0509L39.3534 43.4192L32.9843 47.0964L32.2974 51.7679C32.2498 52.0912 31.9693 52.3289 31.6426 52.3227L31.1446 52.3132C30.8927 52.3084 30.6663 52.1584 30.5638 51.9283L28.7741 47.9123C27.5439 47.9516 26.3891 47.8307 26.0792 47.294C25.7697 46.7579 26.2429 45.7021 26.893 44.6611L24.3295 41.1302C24.1815 40.9263 24.1648 40.6553 24.2866 40.4347L24.5274 39.9988C24.6854 39.7127 25.0314 39.5886 25.3352 39.7091L29.6974 41.4393L36.0779 37.7555L28.4192 25.9267C28.328 25.7859 28.2948 25.6152 28.3267 25.4505L28.517 24.467C28.5534 24.2787 28.6712 24.1161 28.8389 24.0228L30.1115 23.315C30.321 23.1985 30.5777 23.2069 30.7791 23.3368L45.0768 32.56L51.1946 29.0279Z" fill="white"/>
<mask id="mask1_1_705" style="mask-type:alpha" maskUnits="userSpaceOnUse" x="24" y="23" width="33" height="34">
<path fill-rule="evenodd" clip-rule="evenodd" d="M51.1946 29.0279C51.3946 28.9124 51.6151 28.8407 51.8456 28.8261C52.8621 28.7621 55.798 28.6781 56.4347 29.7809C57.0715 30.8839 55.5298 33.3837 54.966 34.2314C54.8383 34.4236 54.666 34.5785 54.4662 34.6938L48.3904 38.2017L49.2343 55.3021C49.2461 55.5415 49.125 55.768 48.9193 55.8912L47.67 56.6394C47.5055 56.7379 47.3057 56.7587 47.1244 56.6961L46.1776 56.3691C46.019 56.3143 45.8877 56.2003 45.8114 56.0509L39.3534 43.4192L32.9843 47.0964L32.2974 51.7679C32.2498 52.0912 31.9693 52.3289 31.6426 52.3227L31.1446 52.3132C30.8927 52.3084 30.6663 52.1584 30.5638 51.9283L28.7741 47.9123C27.5439 47.9516 26.3891 47.8307 26.0792 47.294C25.7697 46.7579 26.2429 45.7021 26.893 44.6611L24.3295 41.1302C24.1815 40.9263 24.1648 40.6553 24.2866 40.4347L24.5274 39.9988C24.6854 39.7127 25.0314 39.5886 25.3352 39.7091L29.6974 41.4393L36.0779 37.7555L28.4192 25.9267C28.328 25.7859 28.2948 25.6152 28.3267 25.4505L28.517 24.467C28.5534 24.2787 28.6712 24.1161 28.8389 24.0228L30.1115 23.315C30.321 23.1985 30.5777 23.2069 30.7791 23.3368L45.0768 32.56L51.1946 29.0279Z" fill="white"/>
</mask>
<g mask="url(#mask1_1_705)">
<rect x="45.536" y="30.7839" width="1.30853" height="12.4084" transform="rotate(60 45.536 30.7839)" fill="#EBECF2"/>
<path fill-rule="evenodd" clip-rule="evenodd" d="M48.9193 55.8911C49.125 55.7679 49.246 55.5415 49.2342 55.302L48.3628 37.6426L39.1264 42.9752L45.8113 56.0508C45.8877 56.2002 46.0189 56.3143 46.1775 56.369L47.1244 56.696C47.3057 56.7587 47.5054 56.7379 47.67 56.6393L48.9193 55.8911Z" fill="#DEE1E3"/>
<path opacity="0.4" fill-rule="evenodd" clip-rule="evenodd" d="M28.8366 47.8013L28.7476 47.8527L30.5638 51.9282C30.6664 52.1584 30.8928 52.3084 31.1447 52.3132L31.6426 52.3226C31.9694 52.3288 32.2498 52.0912 32.2974 51.7678L33.023 46.8334L32.56 47.1007C32.4167 47.1834 32.2626 47.2452 32.1011 47.2813C31.551 47.4041 30.1548 47.6951 28.8366 47.8013Z" fill="#DEE1E3"/>
<path fill-rule="evenodd" clip-rule="evenodd" d="M39.2482 43.2135L48.3776 37.9426L48.4769 39.954L40.956 46.5538L39.2482 43.2135Z" fill="#C5C6CC"/>
<path fill-rule="evenodd" clip-rule="evenodd" d="M57.4822 32.9526L27.6913 50.1524C27.6913 50.1524 26.8122 48.5637 26.0792 47.2941C26.0703 47.2787 26.062 47.2631 26.0541 47.2474C27.4055 47.3452 30.1268 47.2352 32.766 45.7115L53.3905 33.8039C55.6822 32.4809 56.2434 30.7675 56.5526 30.031C57.0311 31.3161 57.4822 32.9526 57.4822 32.9526Z" fill="#DEE1E3"/>
</g>
<defs>
<filter id="filter0_d_1_705" x="0" y="0" width="82" height="82" filterUnits="userSpaceOnUse" color-interpolation-filters="sRGB">
<feFlood flood-opacity="0" result="BackgroundImageFix"/>
<feColorMatrix in="SourceAlpha" type="matrix" values="0 0 0 0 0 0 0 0 0 0 0 0 0 0 0 0 0 0 127 0" result="hardAlpha"/>
<feOffset dy="1"/>
<feGaussianBlur stdDeviation="5.5"/>
<feColorMatrix type="matrix" values="0 0 0 0 0.215686 0 0 0 0 0.407843 0 0 0 0 0.556863 0 0 0 0.3 0"/>
<feBlend mode="normal" in2="BackgroundImageFix" result="effect1_dropShadow_1_705"/>
<feBlend mode="normal" in="SourceGraphic" in2="effect1_dropShadow_1_705" result="shape"/>
</filter>
</defs>
</svg>
